<svg xmlns="http://www.w3.org/2000/svg" viewBox="0 0 512 512">
  <defs>
    <linearGradient id="bFill" x1="0" y1="0" x2="1" y2="1">
      <stop offset="0%"   stop-color="#FFE234"/>
      <stop offset="100%" stop-color="#FFB300"/>
    </linearGradient>
    <linearGradient id="bShade" x1="0" y1="0" x2="1" y2="1">
      <stop offset="0%"   stop-color="#C07800" stop-opacity="0"/>
      <stop offset="100%" stop-color="#7A4600" stop-opacity="0.22"/>
    </linearGradient>
  </defs>
  <rect width="512" height="512" rx="96" fill="#FFFBEA"/>
  <path d="M 108 418 C  62 282,  282  62,  418 108 C 364 148,  148 364,  108 418 Z" fill="url(#bFill)" stroke="#C8870A" stroke-width="6" stroke-linejoin="round"/>
  <path d="M 108 418 C  62 282,  282  62,  418 108 C 364 148,  148 364,  108 418 Z" fill="url(#bShade)"/>
  <path d="M 122 398 C  80 272,  276  80,  398 120" fill="none" stroke="#FFFDE7" stroke-width="18" stroke-linecap="round" opacity="0.55"/>
  <ellipse cx="108" cy="418" rx="16" ry="22" transform="rotate(-45 108 418)" fill="#5C2906"/>
  <ellipse cx="418" cy="108" rx="16" ry="22" transform="rotate(-45 418 108)" fill="#5C2906"/>
  <circle cx="204" cy="244" r="13" fill="#3D1A00"/>
  <circle cx="244" cy="204" r="13" fill="#3D1A00"/>
  <circle cx="209" cy="239" r="4"  fill="white"/>
  <circle cx="249" cy="199" r="4"  fill="white"/>
  <path d="M 196 262 Q 224 284 252 262" fill="none" stroke="#3D1A00" stroke-width="10" stroke-linecap="round"/>
  <ellipse cx="184" cy="258" rx="20" ry="13" transform="rotate(-45 184 258)" fill="#FF8099" opacity="0.40"/>
  <ellipse cx="258" cy="184" rx="20" ry="13" transform="rotate(-45 258 184)" fill="#FF8099" opacity="0.40"/>
</svg>
